<svg width="50" height="50" viewBox="0 0 70 70" fill="none" xmlns="http://www.w3.org/2000/svg">
<circle cx="35" cy="35" r="35" transform="rotate(90 35 35)" fill="white"/>
<path fill-rule="evenodd" clip-rule="evenodd" d="M46.1696 38.9052L35.367 49.5118C34.7041 50.1627 33.6294 50.1627 32.9665 49.5118L22.1639 38.9052C21.501 38.2544 21.501 37.1991 22.1639 36.5482C22.8268 35.8973 23.9016 35.8973 24.5645 36.5482L32.4693 44.3096L32.4693 21.6667C32.4693 20.7462 33.2293 20 34.1667 20C35.1042 20 35.8642 20.7462 35.8642 21.6667L35.8642 44.3096L43.769 36.5482C44.4319 35.8973 45.5067 35.8973 46.1696 36.5482C46.8325 37.1991 46.8325 38.2544 46.1696 38.9052Z" fill="black"/>
</svg>
